<svg id="Layer" enable-background="new 0 0 64 64" height="512" viewBox="0 0 64 64" width="512" xmlns="http://www.w3.org/2000/svg"><path d="m54 49v3c0 1.1-.9 2-2 2h-40c-1.1 0-2-.9-2-2v-3c0-1.1.9-2 2-2h40c1.1 0 2 .9 2 2z" fill="#ff7043"/><path d="m28 10h8v28h-8z" fill="#4dd0e1"/><g fill="#012e52"><path d="m52 45h-40c-2.206 0-4 1.794-4 4v3c0 2.206 1.794 4 4 4h40c2.206 0 4-1.794 4-4v-3c0-2.206-1.794-4-4-4zm0 7h-40l.006-3h39.994z"/><path d="m46 18c1.104 0 2-.896 2-2v-6c0-1.104-.896-2-2-2h-28c-1.104 0-2 .896-2 2v6c0 1.104.896 2 2 2s2-.896 2-2v-4h6v24h-3c-1.104 0-2 .896-2 2s.896 2 2 2h18c1.104 0 2-.896 2-2s-.896-2-2-2h-3v-24h6v4c0 1.104.896 2 2 2zm-12 18h-4v-24h4z"/></g></svg>